<svg width="146" height="54" viewBox="0 0 146 54" fill="none" xmlns="http://www.w3.org/2000/svg">
<path d="M36.9915 26.9915C36.9947 27.4017 36.87 27.8027 36.6348 28.1387C36.3996 28.4747 36.0655 28.7291 35.679 28.8665L27.749 31.7503L24.8665 39.679C24.7245 40.0618 24.4686 40.3919 24.1335 40.625C23.7983 40.8581 23.3998 40.9831 22.9915 40.9831C22.5833 40.9831 22.1848 40.8581 21.8496 40.625C21.5144 40.3919 21.2586 40.0618 21.1165 39.679L18.234 31.749L10.304 28.8665C9.92128 28.7245 9.59117 28.4686 9.35806 28.1335C9.12495 27.7983 9 27.3998 9 26.9915C9 26.5833 9.12495 26.1848 9.35806 25.8496C9.59117 25.5144 9.92128 25.2586 10.304 25.1165L18.234 22.234L21.1165 14.304C21.2586 13.9213 21.5144 13.5912 21.8496 13.3581C22.1848 13.1249 22.5833 13 22.9915 13C23.3998 13 23.7983 13.1249 24.1335 13.3581C24.4686 13.5912 24.7245 13.9213 24.8665 14.304L27.7503 22.234L35.679 25.1165C36.0655 25.2539 36.3996 25.5083 36.6348 25.8444C36.87 26.1804 36.9947 26.5814 36.9915 26.9915Z" fill="#FEAE17"/>
<path d="M55.94 28.92H55.96V35H43.58V34.68H45.18V21.68L43.4 20.6H51.36L49.58 21.68V34.68H49.74C50.98 34.68 52.1333 34.1933 53.2 33.22C54.28 32.2333 55.1933 30.8 55.94 28.92ZM69.3947 25.6C68.9414 24.76 68.468 24.04 67.9747 23.44C67.4814 22.84 66.9747 22.36 66.4547 22C65.948 21.6267 65.4147 21.3533 64.8547 21.18C64.308 21.0067 63.7347 20.92 63.1347 20.92V27.32C63.428 27.3067 63.7814 27.2133 64.1947 27.04C64.608 26.8667 65.0347 26.5667 65.4747 26.14C65.9147 25.7133 66.268 25.2267 66.5347 24.68H66.5547V30.26H66.5347C66.1614 29.4867 65.6614 28.86 65.0347 28.38C64.4214 27.8867 63.788 27.6267 63.1347 27.6V34.68C64.0547 34.6667 64.8747 34.4867 65.5947 34.14C66.3147 33.78 66.9814 33.2667 67.5947 32.6C68.2214 31.92 68.8214 31.0533 69.3947 30H69.4147V35H57.1347V34.68H58.7347V21.68L56.9547 20.6H69.4147V25.6H69.3947ZM85.4972 20.6V26.24H85.4772C84.0372 22.9333 82.3772 21.1667 80.4972 20.94V34.68H82.2972V35H74.2972V34.68H76.0972V20.94C74.2305 21.1667 72.5772 22.9333 71.1372 26.24H71.1172V20.6H85.4972ZM88.5883 19.7L90.0283 16.42H94.6883V16.44L88.6083 19.7H88.5883ZM86.5683 35V34.68H88.1683V21.68L86.3883 20.6H94.3483L92.5683 21.68V34.68H94.1683V35H86.5683ZM102.978 35.4C101.858 35.4 100.824 35.2067 99.8778 34.82C98.9311 34.42 98.1178 33.86 97.4378 33.14C96.7711 32.4067 96.2578 31.54 95.8978 30.54C95.5378 29.54 95.3578 28.4667 95.3578 27.32C95.3578 26.2667 95.5311 25.3 95.8778 24.42C96.2245 23.54 96.7178 22.7867 97.3578 22.16C97.9978 21.5333 98.7645 21.0533 99.6578 20.72C100.564 20.3733 101.551 20.2 102.618 20.2C104.551 20.2 106.298 20.6067 107.858 21.42L106.098 28.4H106.078C104.824 25.9467 103.718 24.12 102.758 22.92C101.811 21.72 100.898 21.12 100.018 21.12C99.5645 21.12 99.1911 21.3133 98.8978 21.7C98.6045 22.0867 98.4578 22.6533 98.4578 23.4C98.4578 24.3333 98.6111 25.3133 98.9178 26.34C99.2378 27.3533 99.7845 28.36 100.558 29.36C101.344 30.36 102.298 31.1667 103.418 31.78C104.551 32.38 105.704 32.68 106.878 32.68C107.158 32.68 107.458 32.66 107.778 32.62C108.098 32.5667 108.344 32.5 108.518 32.42L108.538 32.44C108.298 32.8667 107.944 33.3 107.478 33.74C107.011 34.18 106.371 34.5667 105.558 34.9C104.758 35.2333 103.898 35.4 102.978 35.4ZM109.42 35V34.68H111.02V21.68L109.24 20.6H117.2L115.42 21.68V34.68H117.02V35H109.42ZM131.466 34.68H132.386V35H125.026V34.68H126.666L125.086 30.92H120.486L119.266 34.68H121.326V35H116.906V34.68H117.726L124.086 20.2H125.126L131.466 34.68ZM120.586 30.56H124.926L122.466 24.76L120.586 30.56Z" fill="#20180B"/>
</svg>
