<svg width="1440" height="442" viewBox="0 0 1440 442" fill="none" xmlns="http://www.w3.org/2000/svg">
<g clip-path="url(#clip0_5_36)">
<rect width="1454" height="452" transform="translate(0 -10)" fill="#F7EFE2"/>
<path d="M0 407.703L17.2662 410.396C34.6082 413.088 69.1407 418.473 103.749 419.942C138.357 421.41 172.89 418.963 207.498 422.292C242.106 425.669 276.639 434.775 311.398 432.033C346.082 429.243 380.918 414.557 415.602 404.864C450.361 395.122 484.894 390.423 519.502 390.57C554.11 390.717 588.643 395.808 623.251 400.997C657.859 406.235 692.392 411.62 727 413.969C761.608 416.368 796.141 415.683 830.749 413.578C865.357 411.473 899.89 407.85 934.498 410.739C969.106 413.578 1003.64 422.879 1038.4 427.432C1073.08 432.033 1107.92 431.837 1142.6 424.103C1177.36 416.368 1211.89 400.997 1246.5 394.486C1281.11 387.975 1315.64 390.227 1350.25 394.878C1384.86 399.528 1419.39 406.578 1436.73 410.053L1454 413.578V518.828H1436.73C1419.39 518.828 1384.86 518.828 1350.25 518.828C1315.64 518.828 1281.11 518.828 1246.5 518.828C1211.89 518.828 1177.36 518.828 1142.6 518.828C1107.92 518.828 1073.08 518.828 1038.4 518.828C1003.64 518.828 969.106 518.828 934.498 518.828C899.89 518.828 865.357 518.828 830.749 518.828C796.141 518.828 761.608 518.828 727 518.828C692.392 518.828 657.859 518.828 623.251 518.828C588.643 518.828 554.11 518.828 519.502 518.828C484.894 518.828 450.361 518.828 415.602 518.828C380.918 518.828 346.082 518.828 311.398 518.828C276.639 518.828 242.106 518.828 207.498 518.828C172.89 518.828 138.357 518.828 103.749 518.828C69.1407 518.828 34.6082 518.828 17.2662 518.828H0V407.703Z" fill="#FFF7E9"/>
</g>
<defs>
<clipPath id="clip0_5_36">
<rect width="1454" height="452" fill="white" transform="translate(0 -10)"/>
</clipPath>
</defs>
</svg>
